Coordinates
version=1
nRows=6
nColumns=34
inDegrees=yes

Units are S.I. units (second, meters, Newtons, ...)
If the header above contains a line with 'inDegrees', this indicates whether rotational values are in degrees (yes) or radians (no).

endheader
time	pelvis_tilt	pelvis_list	pelvis_rotation	pelvis_tx	pelvis_ty	pelvis_tz	hip_flexion_r	hip_adduction_r	hip_rotation_r	knee_angle_r	ankle_angle_r	subtalar_angle_r	mtp_angle_r	hip_flexion_l	hip_adduction_l	hip_rotation_l	knee_angle_l	ankle_angle_l	subtalar_angle_l	mtp_angle_l	lumbar_extension	lumbar_bending	lumbar_rotation	arm_flex_r	arm_add_r	arm_rot_r	elbow_flex_r	pro_sup_r	arm_flex_l	arm_add_l	arm_rot_l	elbow_flex_l	pro_sup_l
      0.00000000	     -0.91377630	      0.15715520	     -9.08165741	     -0.07154562	      1.20048532	     -0.07987615	     -3.51224482	      2.77200215	      0.13233425	      2.98163569	      1.57355016	     -4.59208255	      0.00000000	     -2.92277346	      1.19381625	     -2.84043779	      3.68121633	      4.54599288	     -4.35187213	      0.00000000	     -1.03312729	     -0.12584252	     -6.01095405	      6.46297193	    -12.55532265	     27.70939977	     16.80091507	     70.48950990	     -4.19910046	    -11.65594490	     16.65042296	     25.53897135	     61.00083514
      0.01666670	     -1.68646907	      1.01804832	     -9.35437345	     -0.07303517	      1.20024048	     -0.08120793	     -2.34123675	      2.02436448	      0.93302202	      2.92890809	      4.43986575	     -1.18453296	      0.00000000	     -2.10875268	      2.36608772	     -4.12080838	      3.01436619	      3.36621369	     -2.80438991	      0.00000000	      0.72131310	     -0.80081221	     -5.60844620	      5.98173252	    -11.16252366	     21.17549218	     15.24580173	     69.39240252	     -3.35383164	    -10.51567658	     15.07818189	     22.67333342	     61.90303391
      0.03333330	     -1.86382145	      1.97604316	     -9.98032963	     -0.07479047	      1.19791548	     -0.08184649	     -1.96210506	      0.98354399	      0.89298457	      2.44177898	      4.64900424	     -1.03882744	      0.00000000	     -1.79650872	      3.52702601	     -4.81080578	      2.80069561	      3.23749957	     -2.92621151	      0.00000000	      1.15281493	     -1.95419270	     -5.18313578	      6.01187240	    -10.74002145	     20.90371737	     15.37443318	     69.35878268	     -3.39086306	    -10.99381994	     14.93489283	     22.66282323	     61.94532797
      0.05000000	     -2.07702534	      2.34143842	    -10.34461315	     -0.07402630	      1.19883386	     -0.08134632	     -1.55853215	      0.52901049	      0.85707375	      2.35840361	      5.40535909	      0.20197522	      0.00000000	     -1.92219673	      4.03227904	     -5.30454320	      2.00639383	      2.90650795	     -1.73386187	      0.00000000	      1.58171231	     -2.44059028	     -3.69737328	      4.36278981	    -10.14448617	     12.63821972	     16.93007841	     67.78931640	     -3.14383777	    -10.81825195	     12.92337249	     22.81500907	     62.87975410
      0.06666670	     -2.12747191	      2.43885420	    -10.41206174	     -0.07497982	      1.20110107	     -0.08214227	     -1.46083100	      0.36533307	      0.93809543	      2.15824351	      5.41712627	      0.22792324	      0.00000000	     -1.91651975	      4.26991272	     -5.28642042	      1.77534576	      2.91271266	     -1.73943807	      0.00000000	      1.48032311	     -2.30570064	     -3.73352780	      4.29317644	    -10.03431631	     12.62508927	     16.94198324	     67.79400089	     -3.10058355	    -10.91278640	     12.90454913	     22.79724119	     62.88454471
      0.08333330	     -1.98789423	      2.71826601	    -10.53243182	     -0.07409569	      1.20124482	     -0.08169280	     -1.75102060	     -0.03349466	      1.52971341	      1.68935656	      5.42592807	      0.32945851	      0.00000000	     -2.34072505	      4.66449288	     -5.02945712	      1.12530304	      2.48250642	     -1.61041398	      0.00000000	      1.49112341	     -2.72202031	     -3.57543928	      4.08833670	     -9.74853806	     12.32705890	     17.07861541	     67.77957531	     -3.08209017	    -11.08460449	     12.71579024	     22.65325471	     62.88331826
